<?xml version="1.0" encoding="UTF-8" standalone="no"?>
<!DOCTYPE svg PUBLIC "-//W3C//DTD SVG 1.1//EN"
 "http://www.w3.org/Graphics/SVG/1.1/DTD/svg11.dtd">
<!-- Generated by graphviz version 2.43.0 (0)
 -->
<!-- Title: ccpr_seasalt_mod::ccpr_seasalt_init Pages: 1 -->
<svg width="832pt" height="214pt"
 viewBox="0.00 0.00 832.00 213.50" xmlns="http://www.w3.org/2000/svg" xmlns:xlink="http://www.w3.org/1999/xlink">
<g id="graph0" class="graph" transform="scale(1 1) rotate(0) translate(4 209.5)">
<title>ccpr_seasalt_mod::ccpr_seasalt_init</title>
<polygon fill="white" stroke="transparent" points="-4,4 -4,-209.5 828,-209.5 828,4 -4,4"/>
<!-- Node1 -->
<g id="node1" class="node">
<title>Node1</title>
<g id="a_node1"><a xlink:title="Initialize the CATCHem SeaSalt Process.">
<polygon fill="#bfbfbf" stroke="black" points="0,-98.5 0,-128.5 131,-128.5 131,-98.5 0,-98.5"/>
<text text-anchor="start" x="8" y="-116.5" font-family="Helvetica,sans-Serif" font-size="10.00">ccpr_seasalt_mod::ccpr</text>
<text text-anchor="middle" x="65.5" y="-105.5" font-family="Helvetica,sans-Serif" font-size="10.00">_seasalt_init</text>
</a>
</g>
</g>
<!-- Node2 -->
<g id="node2" class="node">
<title>Node2</title>
<g id="a_node2"><a xlink:href="group__core__modules.html#ga9d9a1354b84c23bc24cd4db6a547d348" target="_top" xlink:title="CC_CheckVar.">
<polygon fill="white" stroke="black" points="178,-186 178,-205 311,-205 311,-186 178,-186"/>
<text text-anchor="middle" x="244.5" y="-193" font-family="Helvetica,sans-Serif" font-size="10.00">error_mod::cc_checkvar</text>
</a>
</g>
</g>
<!-- Node1&#45;&gt;Node2 -->
<g id="edge1" class="edge">
<title>Node1&#45;&gt;Node2</title>
<path fill="none" stroke="midnightblue" d="M89.29,-128.6C109.19,-141.29 139.15,-159.27 167,-171.5 176.76,-175.78 187.52,-179.65 197.81,-182.97"/>
<polygon fill="midnightblue" stroke="midnightblue" points="196.9,-186.35 207.48,-185.98 198.97,-179.66 196.9,-186.35"/>
</g>
<!-- Node3 -->
<g id="node3" class="node">
<title>Node3</title>
<g id="a_node3"><a xlink:href="group__core__modules.html#ga51caf927c8403a431dd55956762ad350" target="_top" xlink:title="CC_Error.">
<polygon fill="white" stroke="black" points="358,-104 358,-123 470,-123 470,-104 358,-104"/>
<text text-anchor="middle" x="414" y="-111" font-family="Helvetica,sans-Serif" font-size="10.00">error_mod::cc_error</text>
</a>
</g>
</g>
<!-- Node1&#45;&gt;Node3 -->
<g id="edge5" class="edge">
<title>Node1&#45;&gt;Node3</title>
<path fill="none" stroke="midnightblue" d="M116.66,-128.53C132.6,-132.61 150.4,-136.47 167,-138.5 235.38,-146.88 253.73,-147.71 322,-138.5 340.02,-136.07 359.51,-131.05 375.82,-126.14"/>
<polygon fill="midnightblue" stroke="midnightblue" points="377.01,-129.44 385.52,-123.12 374.93,-122.75 377.01,-129.44"/>
</g>
<!-- Node6 -->
<g id="node6" class="node">
<title>Node6</title>
<g id="a_node6"><a xlink:href="group__catchem__seasalt__process.html#gaefa204b1f5f6e2740e0149484a2a2854" target="_top" xlink:title="Scheme GEOS2012 Sea Salt Emission scheme.">
<polygon fill="white" stroke="black" points="167.5,-98.5 167.5,-128.5 321.5,-128.5 321.5,-98.5 167.5,-98.5"/>
<text text-anchor="start" x="175.5" y="-116.5" font-family="Helvetica,sans-Serif" font-size="10.00">ccpr_scheme_geos12</text>
<text text-anchor="middle" x="244.5" y="-105.5" font-family="Helvetica,sans-Serif" font-size="10.00">_mod::ccpr_scheme_geos12</text>
</a>
</g>
</g>
<!-- Node1&#45;&gt;Node6 -->
<g id="edge6" class="edge">
<title>Node1&#45;&gt;Node6</title>
<path fill="none" stroke="midnightblue" d="M131.15,-113.5C139.6,-113.5 148.36,-113.5 157.09,-113.5"/>
<polygon fill="midnightblue" stroke="midnightblue" points="157.31,-117 167.31,-113.5 157.31,-110 157.31,-117"/>
</g>
<!-- Node7 -->
<g id="node7" class="node">
<title>Node7</title>
<g id="a_node7"><a xlink:href="group__catchem__seasalt__process.html#ga88b0fdefeef9a317dbfa3b9ceeb5d2e9" target="_top" xlink:title="Run the Ginoux windblown dust emission scheme.">
<polygon fill="white" stroke="black" points="167,-49.5 167,-79.5 322,-79.5 322,-49.5 167,-49.5"/>
<text text-anchor="start" x="175" y="-67.5" font-family="Helvetica,sans-Serif" font-size="10.00">ccpr_scheme_gong03</text>
<text text-anchor="middle" x="244.5" y="-56.5" font-family="Helvetica,sans-Serif" font-size="10.00">_mod::ccpr_scheme_gong03</text>
</a>
</g>
</g>
<!-- Node1&#45;&gt;Node7 -->
<g id="edge8" class="edge">
<title>Node1&#45;&gt;Node7</title>
<path fill="none" stroke="midnightblue" d="M121.05,-98.4C139.47,-93.3 160.21,-87.56 179.31,-82.27"/>
<polygon fill="midnightblue" stroke="midnightblue" points="180.43,-85.59 189.13,-79.55 178.56,-78.85 180.43,-85.59"/>
</g>
<!-- Node8 -->
<g id="node8" class="node">
<title>Node8</title>
<g id="a_node8"><a xlink:href="group__catchem__seasalt__process.html#ga76f44c0afb22ac85478b10cadad934d7" target="_top" xlink:title="Run the Ginoux windblown dust emission scheme.">
<polygon fill="white" stroke="black" points="167,-0.5 167,-30.5 322,-30.5 322,-0.5 167,-0.5"/>
<text text-anchor="start" x="175" y="-18.5" font-family="Helvetica,sans-Serif" font-size="10.00">ccpr_scheme_gong97</text>
<text text-anchor="middle" x="244.5" y="-7.5" font-family="Helvetica,sans-Serif" font-size="10.00">_mod::ccpr_scheme_gong97</text>
</a>
</g>
</g>
<!-- Node1&#45;&gt;Node8 -->
<g id="edge10" class="edge">
<title>Node1&#45;&gt;Node8</title>
<path fill="none" stroke="midnightblue" d="M83.91,-98.22C103.11,-82.02 135.5,-56.58 167,-40.5 171.29,-38.31 175.8,-36.26 180.41,-34.35"/>
<polygon fill="midnightblue" stroke="midnightblue" points="181.91,-37.52 189.95,-30.62 179.37,-31 181.91,-37.52"/>
</g>
<!-- Node2&#45;&gt;Node3 -->
<g id="edge2" class="edge">
<title>Node2&#45;&gt;Node3</title>
<path fill="none" stroke="midnightblue" d="M282.82,-185.94C295.52,-182.12 309.63,-177.26 322,-171.5 347.31,-159.72 373.99,-142 391.87,-129.25"/>
<polygon fill="midnightblue" stroke="midnightblue" points="394.32,-131.79 400.36,-123.09 390.21,-126.13 394.32,-131.79"/>
</g>
<!-- Node4 -->
<g id="node4" class="node">
<title>Node4</title>
<g id="a_node4"><a xlink:href="group__core__modules.html#ga3890886a8d25cb4253fe2706c44e6e78" target="_top" xlink:title="Print a string in multiple lines.">
<polygon fill="white" stroke="black" points="506,-104 506,-123 665,-123 665,-104 506,-104"/>
<text text-anchor="middle" x="585.5" y="-111" font-family="Helvetica,sans-Serif" font-size="10.00">charpak_mod::wordwrapprint</text>
</a>
</g>
</g>
<!-- Node3&#45;&gt;Node4 -->
<g id="edge3" class="edge">
<title>Node3&#45;&gt;Node4</title>
<path fill="none" stroke="midnightblue" d="M470.03,-113.5C478.23,-113.5 486.85,-113.5 495.54,-113.5"/>
<polygon fill="midnightblue" stroke="midnightblue" points="495.73,-117 505.73,-113.5 495.73,-110 495.73,-117"/>
</g>
<!-- Node5 -->
<g id="node5" class="node">
<title>Node5</title>
<g id="a_node5"><a xlink:href="group__core__modules.html#ga36b722fb300c543f0eb910116bb28973" target="_top" xlink:title="Count the number of times a character appears in a string.">
<polygon fill="white" stroke="black" points="701,-104 701,-123 824,-123 824,-104 701,-104"/>
<text text-anchor="middle" x="762.5" y="-111" font-family="Helvetica,sans-Serif" font-size="10.00">charpak_mod::cntmat</text>
</a>
</g>
</g>
<!-- Node4&#45;&gt;Node5 -->
<g id="edge4" class="edge">
<title>Node4&#45;&gt;Node5</title>
<path fill="none" stroke="midnightblue" d="M665.04,-113.5C673.57,-113.5 682.21,-113.5 690.64,-113.5"/>
<polygon fill="midnightblue" stroke="midnightblue" points="690.79,-117 700.79,-113.5 690.79,-110 690.79,-117"/>
</g>
<!-- Node6&#45;&gt;Node3 -->
<g id="edge7" class="edge">
<title>Node6&#45;&gt;Node3</title>
<path fill="none" stroke="midnightblue" d="M321.9,-113.5C330.49,-113.5 339.18,-113.5 347.61,-113.5"/>
<polygon fill="midnightblue" stroke="midnightblue" points="347.74,-117 357.74,-113.5 347.74,-110 347.74,-117"/>
</g>
<!-- Node7&#45;&gt;Node3 -->
<g id="edge9" class="edge">
<title>Node7&#45;&gt;Node3</title>
<path fill="none" stroke="midnightblue" d="M297.12,-79.6C320.71,-86.5 348.31,-94.58 370.66,-101.11"/>
<polygon fill="midnightblue" stroke="midnightblue" points="369.94,-104.55 380.52,-104 371.9,-97.83 369.94,-104.55"/>
</g>
<!-- Node8&#45;&gt;Node3 -->
<g id="edge11" class="edge">
<title>Node8&#45;&gt;Node3</title>
<path fill="none" stroke="midnightblue" d="M300.02,-30.62C307.59,-33.49 315.12,-36.78 322,-40.5 350.17,-55.74 378.26,-80.01 395.62,-96.33"/>
<polygon fill="midnightblue" stroke="midnightblue" points="393.59,-99.24 403.23,-103.63 398.44,-94.19 393.59,-99.24"/>
</g>
</g>
</svg>
