<?xml version="1.0" encoding="UTF-8" standalone="no"?>
<!DOCTYPE svg PUBLIC "-//W3C//DTD SVG 1.1//EN"
 "http://www.w3.org/Graphics/SVG/1.1/DTD/svg11.dtd">
<!-- Generated by graphviz version 2.43.0 (0)
 -->
<!-- Title: init_mod::init_met Pages: 1 -->
<svg width="662pt" height="66pt"
 viewBox="0.00 0.00 662.00 66.00" xmlns="http://www.w3.org/2000/svg" xmlns:xlink="http://www.w3.org/1999/xlink">
<g id="graph0" class="graph" transform="scale(1 1) rotate(0) translate(4 62)">
<title>init_mod::init_met</title>
<polygon fill="white" stroke="transparent" points="-4,4 -4,-62 658,-62 658,4 -4,4"/>
<!-- Node1 -->
<g id="node1" class="node">
<title>Node1</title>
<g id="a_node1"><a xlink:title="Initialize the met state.">
<polygon fill="#bfbfbf" stroke="black" points="0,-19.5 0,-38.5 106,-38.5 106,-19.5 0,-19.5"/>
<text text-anchor="middle" x="53" y="-26.5" font-family="Helvetica,sans-Serif" font-size="10.00">init_mod::init_met</text>
</a>
</g>
</g>
<!-- Node2 -->
<g id="node2" class="node">
<title>Node2</title>
<g id="a_node2"><a xlink:href="group__core__modules.html#ga51caf927c8403a431dd55956762ad350" target="_top" xlink:title="CC_Error.">
<polygon fill="white" stroke="black" points="165,-38.5 165,-57.5 277,-57.5 277,-38.5 165,-38.5"/>
<text text-anchor="middle" x="221" y="-45.5" font-family="Helvetica,sans-Serif" font-size="10.00">error_mod::cc_error</text>
</a>
</g>
</g>
<!-- Node1&#45;&gt;Node2 -->
<g id="edge1" class="edge">
<title>Node1&#45;&gt;Node2</title>
<path fill="none" stroke="midnightblue" d="M106.07,-34.96C121.58,-36.74 138.77,-38.7 155,-40.56"/>
<polygon fill="midnightblue" stroke="midnightblue" points="154.63,-44.04 164.96,-41.7 155.42,-37.09 154.63,-44.04"/>
</g>
<!-- Node5 -->
<g id="node5" class="node">
<title>Node5</title>
<g id="a_node5"><a xlink:href="group__core__modules.html#gad1e148405a99dea51c273511b9c1ce5c" target="_top" xlink:title="Allocate the MetState object.">
<polygon fill="white" stroke="black" points="142,-0.5 142,-19.5 300,-19.5 300,-0.5 142,-0.5"/>
<text text-anchor="middle" x="221" y="-7.5" font-family="Helvetica,sans-Serif" font-size="10.00">metstate_mod::met_allocate</text>
</a>
</g>
</g>
<!-- Node1&#45;&gt;Node5 -->
<g id="edge4" class="edge">
<title>Node1&#45;&gt;Node5</title>
<path fill="none" stroke="midnightblue" d="M106.07,-23.04C114.36,-22.09 123.13,-21.09 131.98,-20.08"/>
<polygon fill="midnightblue" stroke="midnightblue" points="132.44,-23.55 141.97,-18.93 131.64,-16.59 132.44,-23.55"/>
</g>
<!-- Node3 -->
<g id="node3" class="node">
<title>Node3</title>
<g id="a_node3"><a xlink:href="group__core__modules.html#ga3890886a8d25cb4253fe2706c44e6e78" target="_top" xlink:title="Print a string in multiple lines.">
<polygon fill="white" stroke="black" points="336,-38.5 336,-57.5 495,-57.5 495,-38.5 336,-38.5"/>
<text text-anchor="middle" x="415.5" y="-45.5" font-family="Helvetica,sans-Serif" font-size="10.00">charpak_mod::wordwrapprint</text>
</a>
</g>
</g>
<!-- Node2&#45;&gt;Node3 -->
<g id="edge2" class="edge">
<title>Node2&#45;&gt;Node3</title>
<path fill="none" stroke="midnightblue" d="M277.16,-48C292.25,-48 309,-48 325.46,-48"/>
<polygon fill="midnightblue" stroke="midnightblue" points="325.66,-51.5 335.66,-48 325.66,-44.5 325.66,-51.5"/>
</g>
<!-- Node4 -->
<g id="node4" class="node">
<title>Node4</title>
<g id="a_node4"><a xlink:href="group__core__modules.html#ga36b722fb300c543f0eb910116bb28973" target="_top" xlink:title="Count the number of times a character appears in a string.">
<polygon fill="white" stroke="black" points="531,-38.5 531,-57.5 654,-57.5 654,-38.5 531,-38.5"/>
<text text-anchor="middle" x="592.5" y="-45.5" font-family="Helvetica,sans-Serif" font-size="10.00">charpak_mod::cntmat</text>
</a>
</g>
</g>
<!-- Node3&#45;&gt;Node4 -->
<g id="edge3" class="edge">
<title>Node3&#45;&gt;Node4</title>
<path fill="none" stroke="midnightblue" d="M495.04,-48C503.57,-48 512.21,-48 520.64,-48"/>
<polygon fill="midnightblue" stroke="midnightblue" points="520.79,-51.5 530.79,-48 520.79,-44.5 520.79,-51.5"/>
</g>
</g>
</svg>
