<?xml version="1.0" encoding="UTF-8" standalone="no"?>
<!DOCTYPE svg PUBLIC "-//W3C//DTD SVG 1.1//EN"
 "http://www.w3.org/Graphics/SVG/1.1/DTD/svg11.dtd">
<!-- Generated by graphviz version 2.43.0 (0)
 -->
<!-- Title: ccpr_dust_mod::ccpr_dust_init Pages: 1 -->
<svg width="466pt" height="165pt"
 viewBox="0.00 0.00 466.00 164.50" xmlns="http://www.w3.org/2000/svg" xmlns:xlink="http://www.w3.org/1999/xlink">
<g id="graph0" class="graph" transform="scale(1 1) rotate(0) translate(4 160.5)">
<title>ccpr_dust_mod::ccpr_dust_init</title>
<polygon fill="white" stroke="transparent" points="-4,4 -4,-160.5 462,-160.5 462,4 -4,4"/>
<!-- Node1 -->
<g id="node1" class="node">
<title>Node1</title>
<g id="a_node1"><a xlink:title="Initialize the CATCHem Dust Process.">
<polygon fill="#bfbfbf" stroke="black" points="0,-71.5 0,-101.5 116,-101.5 116,-71.5 0,-71.5"/>
<text text-anchor="start" x="8" y="-89.5" font-family="Helvetica,sans-Serif" font-size="10.00">ccpr_dust_mod::ccpr</text>
<text text-anchor="middle" x="58" y="-78.5" font-family="Helvetica,sans-Serif" font-size="10.00">_dust_init</text>
</a>
</g>
</g>
<!-- Node2 -->
<g id="node2" class="node">
<title>Node2</title>
<g id="a_node2"><a xlink:href="group__Core__Modules.html#ga9d9a1354b84c23bc24cd4db6a547d348" target="_top" xlink:title="CC_CheckVar.">
<polygon fill="white" stroke="black" points="164.5,-137 164.5,-156 297.5,-156 297.5,-137 164.5,-137"/>
<text text-anchor="middle" x="231" y="-144" font-family="Helvetica,sans-Serif" font-size="10.00">error_mod::cc_checkvar</text>
</a>
</g>
</g>
<!-- Node1&#45;&gt;Node2 -->
<g id="edge1" class="edge">
<title>Node1&#45;&gt;Node2</title>
<path fill="none" stroke="midnightblue" d="M96.33,-101.65C113.23,-108.32 133.52,-116.09 152,-122.5 163.39,-126.45 175.82,-130.43 187.35,-133.97"/>
<polygon fill="midnightblue" stroke="midnightblue" points="186.61,-137.41 197.2,-136.97 188.65,-130.71 186.61,-137.41"/>
</g>
<!-- Node3 -->
<g id="node3" class="node">
<title>Node3</title>
<g id="a_node3"><a xlink:href="group__Core__Modules.html#ga51caf927c8403a431dd55956762ad350" target="_top" xlink:title="CC_Error.">
<polygon fill="white" stroke="black" points="346,-77 346,-96 458,-96 458,-77 346,-77"/>
<text text-anchor="middle" x="402" y="-84" font-family="Helvetica,sans-Serif" font-size="10.00">error_mod::cc_error</text>
</a>
</g>
</g>
<!-- Node1&#45;&gt;Node3 -->
<g id="edge3" class="edge">
<title>Node1&#45;&gt;Node3</title>
<path fill="none" stroke="midnightblue" d="M116.05,-88.63C127.93,-88.99 140.37,-89.31 152,-89.5 222.21,-90.63 239.79,-90.66 310,-89.5 318.29,-89.36 327.01,-89.16 335.63,-88.91"/>
<polygon fill="midnightblue" stroke="midnightblue" points="335.77,-92.41 345.67,-88.62 335.57,-85.41 335.77,-92.41"/>
</g>
<!-- Node4 -->
<g id="node4" class="node">
<title>Node4</title>
<g id="a_node4"><a xlink:href="group__CATChem__Dust__Processes.html#ga2ecd8e7b62f710daffc274402498489b" target="_top" xlink:title="This is the FENGSHA dust emission scheme developed at NOAA Air Resources Laboratory.">
<polygon fill="white" stroke="black" points="152,-49.5 152,-79.5 310,-79.5 310,-49.5 152,-49.5"/>
<text text-anchor="start" x="160" y="-67.5" font-family="Helvetica,sans-Serif" font-size="10.00">ccpr_scheme_fengsha</text>
<text text-anchor="middle" x="231" y="-56.5" font-family="Helvetica,sans-Serif" font-size="10.00">_mod::ccpr_scheme_fengsha</text>
</a>
</g>
</g>
<!-- Node1&#45;&gt;Node4 -->
<g id="edge4" class="edge">
<title>Node1&#45;&gt;Node4</title>
<path fill="none" stroke="midnightblue" d="M116.42,-79.11C124.58,-78.06 133.12,-76.96 141.7,-75.86"/>
<polygon fill="midnightblue" stroke="midnightblue" points="142.3,-79.31 151.77,-74.56 141.4,-72.37 142.3,-79.31"/>
</g>
<!-- Node5 -->
<g id="node5" class="node">
<title>Node5</title>
<g id="a_node5"><a xlink:href="group__CATChem__Dust__Processes.html#ga249debe2e73064b36291474cc9827af0" target="_top" xlink:title="Calculates the dust emission flux in ug m&#45;2 s&#45;1.">
<polygon fill="white" stroke="black" points="155,-0.5 155,-30.5 307,-30.5 307,-0.5 155,-0.5"/>
<text text-anchor="start" x="163" y="-18.5" font-family="Helvetica,sans-Serif" font-size="10.00">ccpr_scheme_ginoux</text>
<text text-anchor="middle" x="231" y="-7.5" font-family="Helvetica,sans-Serif" font-size="10.00">_mod::ccpr_scheme_ginoux</text>
</a>
</g>
</g>
<!-- Node1&#45;&gt;Node5 -->
<g id="edge6" class="edge">
<title>Node1&#45;&gt;Node5</title>
<path fill="none" stroke="midnightblue" d="M86.99,-71.29C105.2,-61.74 129.63,-49.56 152,-40.5 157.71,-38.19 163.72,-35.94 169.76,-33.81"/>
<polygon fill="midnightblue" stroke="midnightblue" points="170.93,-37.11 179.26,-30.55 168.66,-30.49 170.93,-37.11"/>
</g>
<!-- Node2&#45;&gt;Node3 -->
<g id="edge2" class="edge">
<title>Node2&#45;&gt;Node3</title>
<path fill="none" stroke="midnightblue" d="M265.21,-136.91C279.12,-132.73 295.43,-127.62 310,-122.5 329.7,-115.58 351.45,-107.01 368.75,-99.97"/>
<polygon fill="midnightblue" stroke="midnightblue" points="370.45,-103.06 378.37,-96.02 367.79,-96.58 370.45,-103.06"/>
</g>
<!-- Node4&#45;&gt;Node3 -->
<g id="edge5" class="edge">
<title>Node4&#45;&gt;Node3</title>
<path fill="none" stroke="midnightblue" d="M310.07,-74.66C318.68,-75.78 327.37,-76.92 335.8,-78.01"/>
<polygon fill="midnightblue" stroke="midnightblue" points="335.55,-81.51 345.92,-79.33 336.46,-74.57 335.55,-81.51"/>
</g>
<!-- Node5&#45;&gt;Node3 -->
<g id="edge7" class="edge">
<title>Node5&#45;&gt;Node3</title>
<path fill="none" stroke="midnightblue" d="M283.19,-30.63C292.21,-33.66 301.45,-36.99 310,-40.5 332.39,-49.68 356.81,-62.17 374.71,-71.82"/>
<polygon fill="midnightblue" stroke="midnightblue" points="373.48,-75.13 383.94,-76.85 376.83,-68.99 373.48,-75.13"/>
</g>
</g>
</svg>
