<?xml version="1.0" encoding="UTF-8" standalone="no"?>
<!DOCTYPE svg PUBLIC "-//W3C//DTD SVG 1.1//EN"
 "http://www.w3.org/Graphics/SVG/1.1/DTD/svg11.dtd">
<!-- Generated by graphviz version 2.43.0 (0)
 -->
<!-- Title: config_mod::read_input_file Pages: 1 -->
<svg width="873pt" height="215pt"
 viewBox="0.00 0.00 873.00 214.50" xmlns="http://www.w3.org/2000/svg" xmlns:xlink="http://www.w3.org/1999/xlink">
<g id="graph0" class="graph" transform="scale(1 1) rotate(0) translate(4 210.5)">
<title>config_mod::read_input_file</title>
<polygon fill="white" stroke="transparent" points="-4,4 -4,-210.5 869,-210.5 869,4 -4,4"/>
<!-- Node1 -->
<g id="node1" class="node">
<title>Node1</title>
<g id="a_node1"><a xlink:title="Read the configuration file.">
<polygon fill="#bfbfbf" stroke="black" points="0,-94 0,-113 151,-113 151,-94 0,-94"/>
<text text-anchor="middle" x="75.5" y="-101" font-family="Helvetica,sans-Serif" font-size="10.00">config_mod::read_input_file</text>
</a>
</g>
</g>
<!-- Node2 -->
<g id="node2" class="node">
<title>Node2</title>
<g id="a_node2"><a xlink:href="group__core__modules.html#ga51caf927c8403a431dd55956762ad350" target="_top" xlink:title="CC_Error.">
<polygon fill="white" stroke="black" points="376,-94 376,-113 488,-113 488,-94 376,-94"/>
<text text-anchor="middle" x="432" y="-101" font-family="Helvetica,sans-Serif" font-size="10.00">error_mod::cc_error</text>
</a>
</g>
</g>
<!-- Node1&#45;&gt;Node2 -->
<g id="edge1" class="edge">
<title>Node1&#45;&gt;Node2</title>
<path fill="none" stroke="midnightblue" d="M111.52,-93.89C133.09,-88.47 161.43,-82.24 187,-79.5 245.33,-73.24 260.66,-73.32 319,-79.5 341.25,-81.86 365.57,-86.78 385.85,-91.55"/>
<polygon fill="midnightblue" stroke="midnightblue" points="385.21,-95 395.75,-93.95 386.85,-88.19 385.21,-95"/>
</g>
<!-- Node5 -->
<g id="node5" class="node">
<title>Node5</title>
<g id="a_node5"><a xlink:href="group__core__modules.html#gaabe8c8bd2f1a373967f7bc804aedb91e" target="_top" xlink:title="Process grid configuration.">
<polygon fill="white" stroke="black" points="187,-187 187,-206 319,-206 319,-187 187,-187"/>
<text text-anchor="middle" x="253" y="-194" font-family="Helvetica,sans-Serif" font-size="10.00">config_mod::config_grid</text>
</a>
</g>
</g>
<!-- Node1&#45;&gt;Node5 -->
<g id="edge4" class="edge">
<title>Node1&#45;&gt;Node5</title>
<path fill="none" stroke="midnightblue" d="M88.35,-113.25C107.83,-128.82 148.3,-159.41 187,-177.5 191.93,-179.8 197.19,-181.89 202.52,-183.77"/>
<polygon fill="midnightblue" stroke="midnightblue" points="201.51,-187.13 212.1,-186.93 203.7,-180.48 201.51,-187.13"/>
</g>
<!-- Node9 -->
<g id="node9" class="node">
<title>Node9</title>
<g id="a_node9"><a xlink:href="group__core__modules.html#ga971679020f0cb9ce171844bf2e435161" target="_top" xlink:title="Process dust configuration.">
<polygon fill="white" stroke="black" points="199,-137.5 199,-167.5 307,-167.5 307,-137.5 199,-137.5"/>
<text text-anchor="start" x="207" y="-155.5" font-family="Helvetica,sans-Serif" font-size="10.00">config_mod::config</text>
<text text-anchor="middle" x="253" y="-144.5" font-family="Helvetica,sans-Serif" font-size="10.00">_process_dust</text>
</a>
</g>
</g>
<!-- Node1&#45;&gt;Node9 -->
<g id="edge10" class="edge">
<title>Node1&#45;&gt;Node9</title>
<path fill="none" stroke="midnightblue" d="M110.75,-113.06C132.96,-119.26 162.55,-127.52 188.91,-134.88"/>
<polygon fill="midnightblue" stroke="midnightblue" points="188.26,-138.34 198.83,-137.65 190.14,-131.59 188.26,-138.34"/>
</g>
<!-- Node10 -->
<g id="node10" class="node">
<title>Node10</title>
<g id="a_node10"><a xlink:href="group__core__modules.html#ga7e45fb82e702483a172a1485835f815e" target="_top" xlink:title="Process seasalt configuration.">
<polygon fill="white" stroke="black" points="199,-88.5 199,-118.5 307,-118.5 307,-88.5 199,-88.5"/>
<text text-anchor="start" x="207" y="-106.5" font-family="Helvetica,sans-Serif" font-size="10.00">config_mod::config</text>
<text text-anchor="middle" x="253" y="-95.5" font-family="Helvetica,sans-Serif" font-size="10.00">_process_seasalt</text>
</a>
</g>
</g>
<!-- Node1&#45;&gt;Node10 -->
<g id="edge13" class="edge">
<title>Node1&#45;&gt;Node10</title>
<path fill="none" stroke="midnightblue" d="M151.18,-103.5C163.72,-103.5 176.62,-103.5 188.83,-103.5"/>
<polygon fill="midnightblue" stroke="midnightblue" points="188.9,-107 198.9,-103.5 188.9,-100 188.9,-107"/>
</g>
<!-- Node11 -->
<g id="node11" class="node">
<title>Node11</title>
<g id="a_node11"><a xlink:href="group__core__modules.html#ga2828ce1f26410b947722ec54e1c6cbd0" target="_top" xlink:title="Process simulation configuration.">
<polygon fill="white" stroke="black" points="199,-0.5 199,-30.5 307,-30.5 307,-0.5 199,-0.5"/>
<text text-anchor="start" x="207" y="-18.5" font-family="Helvetica,sans-Serif" font-size="10.00">config_mod::config</text>
<text text-anchor="middle" x="253" y="-7.5" font-family="Helvetica,sans-Serif" font-size="10.00">_simulation</text>
</a>
</g>
</g>
<!-- Node1&#45;&gt;Node11 -->
<g id="edge16" class="edge">
<title>Node1&#45;&gt;Node11</title>
<path fill="none" stroke="midnightblue" d="M93.97,-93.98C115.63,-82.25 153.77,-61.88 187,-45.5 194.13,-41.98 201.76,-38.35 209.19,-34.88"/>
<polygon fill="midnightblue" stroke="midnightblue" points="210.84,-37.97 218.44,-30.59 207.9,-31.62 210.84,-37.97"/>
</g>
<!-- Node3 -->
<g id="node3" class="node">
<title>Node3</title>
<g id="a_node3"><a xlink:href="group__core__modules.html#ga3890886a8d25cb4253fe2706c44e6e78" target="_top" xlink:title="Print a string in multiple lines.">
<polygon fill="white" stroke="black" points="545,-97 545,-116 704,-116 704,-97 545,-97"/>
<text text-anchor="middle" x="624.5" y="-104" font-family="Helvetica,sans-Serif" font-size="10.00">charpak_mod::wordwrapprint</text>
</a>
</g>
</g>
<!-- Node2&#45;&gt;Node3 -->
<g id="edge2" class="edge">
<title>Node2&#45;&gt;Node3</title>
<path fill="none" stroke="midnightblue" d="M488.1,-104.37C502.61,-104.6 518.65,-104.85 534.45,-105.1"/>
<polygon fill="midnightblue" stroke="midnightblue" points="534.74,-108.6 544.79,-105.26 534.85,-101.6 534.74,-108.6"/>
</g>
<!-- Node4 -->
<g id="node4" class="node">
<title>Node4</title>
<g id="a_node4"><a xlink:href="group__core__modules.html#ga36b722fb300c543f0eb910116bb28973" target="_top" xlink:title="Count the number of times a character appears in a string.">
<polygon fill="white" stroke="black" points="741,-102 741,-121 864,-121 864,-102 741,-102"/>
<text text-anchor="middle" x="802.5" y="-109" font-family="Helvetica,sans-Serif" font-size="10.00">charpak_mod::cntmat</text>
</a>
</g>
</g>
<!-- Node3&#45;&gt;Node4 -->
<g id="edge3" class="edge">
<title>Node3&#45;&gt;Node4</title>
<path fill="none" stroke="midnightblue" d="M704.23,-108.74C713.05,-108.99 721.99,-109.24 730.7,-109.49"/>
<polygon fill="midnightblue" stroke="midnightblue" points="730.69,-112.99 740.79,-109.78 730.89,-105.99 730.69,-112.99"/>
</g>
<!-- Node5&#45;&gt;Node2 -->
<g id="edge5" class="edge">
<title>Node5&#45;&gt;Node2</title>
<path fill="none" stroke="midnightblue" d="M300,-186.92C306.68,-184.45 313.24,-181.36 319,-177.5 340.28,-163.25 334.31,-147.6 355,-132.5 364,-125.94 374.66,-120.66 385.12,-116.51"/>
<polygon fill="midnightblue" stroke="midnightblue" points="386.43,-119.76 394.6,-113.01 384.01,-113.19 386.43,-119.76"/>
</g>
<!-- Node6 -->
<g id="node6" class="node">
<title>Node6</title>
<g id="a_node6"><a xlink:href="group__core__modules.html#ga0ee5218b21cf850e303a4380e9ce220b" target="_top" xlink:title="Split a string into substrings.">
<polygon fill="white" stroke="black" points="371,-142 371,-161 493,-161 493,-142 371,-142"/>
<text text-anchor="middle" x="432" y="-149" font-family="Helvetica,sans-Serif" font-size="10.00">charpak_mod::strsplit</text>
</a>
</g>
</g>
<!-- Node5&#45;&gt;Node6 -->
<g id="edge6" class="edge">
<title>Node5&#45;&gt;Node6</title>
<path fill="none" stroke="midnightblue" d="M291.54,-186.96C318.41,-180.13 354.78,-170.88 383.65,-163.54"/>
<polygon fill="midnightblue" stroke="midnightblue" points="384.69,-166.89 393.52,-161.03 382.96,-160.1 384.69,-166.89"/>
</g>
<!-- Node7 -->
<g id="node7" class="node">
<title>Node7</title>
<g id="a_node7"><a xlink:href="group__core__modules.html#ga1849bf292b78e7b221ebb9da47db21bb" target="_top" xlink:title="Extract text from a string.">
<polygon fill="white" stroke="black" points="565.5,-141 565.5,-160 683.5,-160 683.5,-141 565.5,-141"/>
<text text-anchor="middle" x="624.5" y="-148" font-family="Helvetica,sans-Serif" font-size="10.00">charpak_mod::txtext</text>
</a>
</g>
</g>
<!-- Node6&#45;&gt;Node7 -->
<g id="edge7" class="edge">
<title>Node6&#45;&gt;Node7</title>
<path fill="none" stroke="midnightblue" d="M493.01,-151.18C512.79,-151.08 534.93,-150.96 555.28,-150.86"/>
<polygon fill="midnightblue" stroke="midnightblue" points="555.43,-154.36 565.42,-150.8 555.4,-147.36 555.43,-154.36"/>
</g>
<!-- Node7&#45;&gt;Node4 -->
<g id="edge8" class="edge">
<title>Node7&#45;&gt;Node4</title>
<path fill="none" stroke="midnightblue" d="M668.55,-140.96C692.72,-135.6 723.07,-128.88 748.67,-123.21"/>
<polygon fill="midnightblue" stroke="midnightblue" points="749.58,-126.59 758.59,-121.01 748.06,-119.76 749.58,-126.59"/>
</g>
<!-- Node8 -->
<g id="node8" class="node">
<title>Node8</title>
<g id="a_node8"><a xlink:href="group__core__modules.html#gab3380e435c78f855e451be2b17e7cd9e" target="_top" xlink:title="Copy characters from one string to another.">
<polygon fill="white" stroke="black" points="740,-141 740,-160 865,-160 865,-141 740,-141"/>
<text text-anchor="middle" x="802.5" y="-148" font-family="Helvetica,sans-Serif" font-size="10.00">charpak_mod::copytxt</text>
</a>
</g>
</g>
<!-- Node7&#45;&gt;Node8 -->
<g id="edge9" class="edge">
<title>Node7&#45;&gt;Node8</title>
<path fill="none" stroke="midnightblue" d="M683.62,-150.5C698.26,-150.5 714.16,-150.5 729.4,-150.5"/>
<polygon fill="midnightblue" stroke="midnightblue" points="729.82,-154 739.82,-150.5 729.82,-147 729.82,-154"/>
</g>
<!-- Node9&#45;&gt;Node2 -->
<g id="edge11" class="edge">
<title>Node9&#45;&gt;Node2</title>
<path fill="none" stroke="midnightblue" d="M307.11,-137.8C332.5,-130.77 362.55,-122.45 386.69,-115.77"/>
<polygon fill="midnightblue" stroke="midnightblue" points="387.94,-119.05 396.65,-113.01 386.08,-112.3 387.94,-119.05"/>
</g>
<!-- Node9&#45;&gt;Node6 -->
<g id="edge12" class="edge">
<title>Node9&#45;&gt;Node6</title>
<path fill="none" stroke="midnightblue" d="M307.11,-152.2C323.88,-152.11 342.67,-152 360.46,-151.9"/>
<polygon fill="midnightblue" stroke="midnightblue" points="360.82,-155.4 370.8,-151.84 360.78,-148.4 360.82,-155.4"/>
</g>
<!-- Node10&#45;&gt;Node2 -->
<g id="edge14" class="edge">
<title>Node10&#45;&gt;Node2</title>
<path fill="none" stroke="midnightblue" d="M307.11,-103.5C325.49,-103.5 346.32,-103.5 365.57,-103.5"/>
<polygon fill="midnightblue" stroke="midnightblue" points="365.78,-107 375.78,-103.5 365.78,-100 365.78,-107"/>
</g>
<!-- Node10&#45;&gt;Node6 -->
<g id="edge15" class="edge">
<title>Node10&#45;&gt;Node6</title>
<path fill="none" stroke="midnightblue" d="M307.11,-117.9C332.23,-124.72 361.92,-132.77 385.93,-139.28"/>
<polygon fill="midnightblue" stroke="midnightblue" points="385.27,-142.73 395.84,-141.97 387.11,-135.97 385.27,-142.73"/>
</g>
<!-- Node11&#45;&gt;Node2 -->
<g id="edge17" class="edge">
<title>Node11&#45;&gt;Node2</title>
<path fill="none" stroke="midnightblue" d="M287.54,-30.63C297.69,-35.3 308.84,-40.53 319,-45.5 348.26,-59.82 381.33,-77.08 403.9,-89.03"/>
<polygon fill="midnightblue" stroke="midnightblue" points="402.42,-92.2 412.89,-93.8 405.7,-86.02 402.42,-92.2"/>
</g>
<!-- Node12 -->
<g id="node12" class="node">
<title>Node12</title>
<g id="a_node12"><a xlink:href="group__core__modules.html#ga8d60c3647e63fd86651663238721c7ba" target="_top" xlink:title="Convert a string to uppercase.">
<polygon fill="white" stroke="black" points="355,-6 355,-25 509,-25 509,-6 355,-6"/>
<text text-anchor="middle" x="432" y="-13" font-family="Helvetica,sans-Serif" font-size="10.00">charpak_mod::to_uppercase</text>
</a>
</g>
</g>
<!-- Node11&#45;&gt;Node12 -->
<g id="edge18" class="edge">
<title>Node11&#45;&gt;Node12</title>
<path fill="none" stroke="midnightblue" d="M307.11,-15.5C318.92,-15.5 331.74,-15.5 344.5,-15.5"/>
<polygon fill="midnightblue" stroke="midnightblue" points="344.7,-19 354.7,-15.5 344.7,-12 344.7,-19"/>
</g>
</g>
</svg>
