<?xml version="1.0" encoding="UTF-8" standalone="no"?>
<!DOCTYPE svg PUBLIC "-//W3C//DTD SVG 1.1//EN"
 "http://www.w3.org/Graphics/SVG/1.1/DTD/svg11.dtd">
<!-- Generated by graphviz version 2.43.0 (0)
 -->
<!-- Title: charpak_mod::cleantext Pages: 1 -->
<svg width="320pt" height="104pt"
 viewBox="0.00 0.00 320.00 104.00" xmlns="http://www.w3.org/2000/svg" xmlns:xlink="http://www.w3.org/1999/xlink">
<g id="graph0" class="graph" transform="scale(1 1) rotate(0) translate(4 100)">
<title>charpak_mod::cleantext</title>
<polygon fill="white" stroke="transparent" points="-4,4 -4,-100 316,-100 316,4 -4,4"/>
<!-- Node1 -->
<g id="node1" class="node">
<title>Node1</title>
<g id="a_node1"><a xlink:title="Clean up a string.">
<polygon fill="#bfbfbf" stroke="black" points="0,-38.5 0,-57.5 134,-57.5 134,-38.5 0,-38.5"/>
<text text-anchor="middle" x="67" y="-45.5" font-family="Helvetica,sans-Serif" font-size="10.00">charpak_mod::cleantext</text>
</a>
</g>
</g>
<!-- Node2 -->
<g id="node2" class="node">
<title>Node2</title>
<g id="a_node2"><a xlink:href="group__core__modules.html#ga3add977d34eed7540e60406b29d41955" target="_top" xlink:title="Strip leading and trailing spaces from a string.">
<polygon fill="white" stroke="black" points="183,-76.5 183,-95.5 299,-95.5 299,-76.5 183,-76.5"/>
<text text-anchor="middle" x="241" y="-83.5" font-family="Helvetica,sans-Serif" font-size="10.00">charpak_mod::cstrip</text>
</a>
</g>
</g>
<!-- Node1&#45;&gt;Node2 -->
<g id="edge1" class="edge">
<title>Node1&#45;&gt;Node2</title>
<path fill="none" stroke="midnightblue" d="M111.4,-57.59C134.41,-62.67 162.85,-68.96 187.13,-74.32"/>
<polygon fill="midnightblue" stroke="midnightblue" points="186.39,-77.74 196.91,-76.48 187.9,-70.91 186.39,-77.74"/>
</g>
<!-- Node3 -->
<g id="node3" class="node">
<title>Node3</title>
<g id="a_node3"><a xlink:href="group__core__modules.html#gab6edafbfa660c83eade74902f54259fa" target="_top" xlink:title="Replace text in a string.">
<polygon fill="white" stroke="black" points="181,-38.5 181,-57.5 301,-57.5 301,-38.5 181,-38.5"/>
<text text-anchor="middle" x="241" y="-45.5" font-family="Helvetica,sans-Serif" font-size="10.00">charpak_mod::strrepl</text>
</a>
</g>
</g>
<!-- Node1&#45;&gt;Node3 -->
<g id="edge2" class="edge">
<title>Node1&#45;&gt;Node3</title>
<path fill="none" stroke="midnightblue" d="M134.01,-48C146.07,-48 158.69,-48 170.84,-48"/>
<polygon fill="midnightblue" stroke="midnightblue" points="170.92,-51.5 180.92,-48 170.92,-44.5 170.92,-51.5"/>
</g>
<!-- Node4 -->
<g id="node4" class="node">
<title>Node4</title>
<g id="a_node4"><a xlink:href="group__core__modules.html#ga3471258b163494d335f7c37fd4769f75" target="_top" xlink:title="Remove leading and trailing blanks from a string.">
<polygon fill="white" stroke="black" points="170,-0.5 170,-19.5 312,-19.5 312,-0.5 170,-0.5"/>
<text text-anchor="middle" x="241" y="-7.5" font-family="Helvetica,sans-Serif" font-size="10.00">charpak_mod::strsqueeze</text>
</a>
</g>
</g>
<!-- Node1&#45;&gt;Node4 -->
<g id="edge3" class="edge">
<title>Node1&#45;&gt;Node4</title>
<path fill="none" stroke="midnightblue" d="M111.4,-38.41C134.41,-33.33 162.85,-27.04 187.13,-21.68"/>
<polygon fill="midnightblue" stroke="midnightblue" points="187.9,-25.09 196.91,-19.52 186.39,-18.26 187.9,-25.09"/>
</g>
</g>
</svg>
