<?xml version="1.0" encoding="UTF-8" standalone="no"?>
<!DOCTYPE svg PUBLIC "-//W3C//DTD SVG 1.1//EN"
 "http://www.w3.org/Graphics/SVG/1.1/DTD/svg11.dtd">
<!-- Generated by graphviz version 2.43.0 (0)
 -->
<!-- Title: ccpr_dust_mod::ccpr_dust_run Pages: 1 -->
<svg width="820pt" height="104pt"
 viewBox="0.00 0.00 820.00 104.49" xmlns="http://www.w3.org/2000/svg" xmlns:xlink="http://www.w3.org/1999/xlink">
<g id="graph0" class="graph" transform="scale(1 1) rotate(0) translate(4 100.49)">
<title>ccpr_dust_mod::ccpr_dust_run</title>
<polygon fill="white" stroke="transparent" points="-4,4 -4,-100.49 816,-100.49 816,4 -4,4"/>
<!-- Node1 -->
<g id="node1" class="node">
<title>Node1</title>
<g id="a_node1"><a xlink:title="Run the dust scheme.">
<polygon fill="#bfbfbf" stroke="black" points="0,-49.5 0,-79.5 116,-79.5 116,-49.5 0,-49.5"/>
<text text-anchor="start" x="8" y="-67.5" font-family="Helvetica,sans-Serif" font-size="10.00">ccpr_dust_mod::ccpr</text>
<text text-anchor="middle" x="58" y="-56.5" font-family="Helvetica,sans-Serif" font-size="10.00">_dust_run</text>
</a>
</g>
</g>
<!-- Node2 -->
<g id="node2" class="node">
<title>Node2</title>
<g id="a_node2"><a xlink:href="group__core__modules.html#ga51caf927c8403a431dd55956762ad350" target="_top" xlink:title="CC_Error.">
<polygon fill="white" stroke="black" points="346,-55 346,-74 458,-74 458,-55 346,-55"/>
<text text-anchor="middle" x="402" y="-62" font-family="Helvetica,sans-Serif" font-size="10.00">error_mod::cc_error</text>
</a>
</g>
</g>
<!-- Node1&#45;&gt;Node2 -->
<g id="edge1" class="edge">
<title>Node1&#45;&gt;Node2</title>
<path fill="none" stroke="midnightblue" d="M105.35,-79.52C120.1,-83.61 136.59,-87.46 152,-89.5 221.62,-98.69 240.41,-98.89 310,-89.5 328.02,-87.07 347.51,-82.05 363.82,-77.14"/>
<polygon fill="midnightblue" stroke="midnightblue" points="365.01,-80.44 373.52,-74.12 362.93,-73.75 365.01,-80.44"/>
</g>
<!-- Node5 -->
<g id="node5" class="node">
<title>Node5</title>
<g id="a_node5"><a xlink:href="group__catchem__dust__process.html#ga2ecd8e7b62f710daffc274402498489b" target="_top" xlink:title="This is the FENGSHA dust emission scheme developed at NOAA Air Resources Laboratory.">
<polygon fill="white" stroke="black" points="152,-49.5 152,-79.5 310,-79.5 310,-49.5 152,-49.5"/>
<text text-anchor="start" x="160" y="-67.5" font-family="Helvetica,sans-Serif" font-size="10.00">ccpr_scheme_fengsha</text>
<text text-anchor="middle" x="231" y="-56.5" font-family="Helvetica,sans-Serif" font-size="10.00">_mod::ccpr_scheme_fengsha</text>
</a>
</g>
</g>
<!-- Node1&#45;&gt;Node5 -->
<g id="edge4" class="edge">
<title>Node1&#45;&gt;Node5</title>
<path fill="none" stroke="midnightblue" d="M116.42,-64.5C124.58,-64.5 133.12,-64.5 141.7,-64.5"/>
<polygon fill="midnightblue" stroke="midnightblue" points="141.77,-68 151.77,-64.5 141.77,-61 141.77,-68"/>
</g>
<!-- Node6 -->
<g id="node6" class="node">
<title>Node6</title>
<g id="a_node6"><a xlink:href="group__catchem__dust__process.html#ga249debe2e73064b36291474cc9827af0" target="_top" xlink:title="Calculates the dust emission flux in ug m&#45;2 s&#45;1.">
<polygon fill="white" stroke="black" points="155,-0.5 155,-30.5 307,-30.5 307,-0.5 155,-0.5"/>
<text text-anchor="start" x="163" y="-18.5" font-family="Helvetica,sans-Serif" font-size="10.00">ccpr_scheme_ginoux</text>
<text text-anchor="middle" x="231" y="-7.5" font-family="Helvetica,sans-Serif" font-size="10.00">_mod::ccpr_scheme_ginoux</text>
</a>
</g>
</g>
<!-- Node1&#45;&gt;Node6 -->
<g id="edge6" class="edge">
<title>Node1&#45;&gt;Node6</title>
<path fill="none" stroke="midnightblue" d="M111.7,-49.4C129.42,-44.32 149.35,-38.61 167.73,-33.34"/>
<polygon fill="midnightblue" stroke="midnightblue" points="168.82,-36.67 177.47,-30.55 166.9,-29.94 168.82,-36.67"/>
</g>
<!-- Node3 -->
<g id="node3" class="node">
<title>Node3</title>
<g id="a_node3"><a xlink:href="group__core__modules.html#ga3890886a8d25cb4253fe2706c44e6e78" target="_top" xlink:title="Print a string in multiple lines.">
<polygon fill="white" stroke="black" points="494,-55 494,-74 653,-74 653,-55 494,-55"/>
<text text-anchor="middle" x="573.5" y="-62" font-family="Helvetica,sans-Serif" font-size="10.00">charpak_mod::wordwrapprint</text>
</a>
</g>
</g>
<!-- Node2&#45;&gt;Node3 -->
<g id="edge2" class="edge">
<title>Node2&#45;&gt;Node3</title>
<path fill="none" stroke="midnightblue" d="M458.03,-64.5C466.23,-64.5 474.85,-64.5 483.54,-64.5"/>
<polygon fill="midnightblue" stroke="midnightblue" points="483.73,-68 493.73,-64.5 483.73,-61 483.73,-68"/>
</g>
<!-- Node4 -->
<g id="node4" class="node">
<title>Node4</title>
<g id="a_node4"><a xlink:href="group__core__modules.html#ga36b722fb300c543f0eb910116bb28973" target="_top" xlink:title="Count the number of times a character appears in a string.">
<polygon fill="white" stroke="black" points="689,-55 689,-74 812,-74 812,-55 689,-55"/>
<text text-anchor="middle" x="750.5" y="-62" font-family="Helvetica,sans-Serif" font-size="10.00">charpak_mod::cntmat</text>
</a>
</g>
</g>
<!-- Node3&#45;&gt;Node4 -->
<g id="edge3" class="edge">
<title>Node3&#45;&gt;Node4</title>
<path fill="none" stroke="midnightblue" d="M653.04,-64.5C661.57,-64.5 670.21,-64.5 678.64,-64.5"/>
<polygon fill="midnightblue" stroke="midnightblue" points="678.79,-68 688.79,-64.5 678.79,-61 678.79,-68"/>
</g>
<!-- Node5&#45;&gt;Node2 -->
<g id="edge5" class="edge">
<title>Node5&#45;&gt;Node2</title>
<path fill="none" stroke="midnightblue" d="M310.07,-64.5C318.68,-64.5 327.37,-64.5 335.8,-64.5"/>
<polygon fill="midnightblue" stroke="midnightblue" points="335.92,-68 345.92,-64.5 335.92,-61 335.92,-68"/>
</g>
<!-- Node6&#45;&gt;Node2 -->
<g id="edge7" class="edge">
<title>Node6&#45;&gt;Node2</title>
<path fill="none" stroke="midnightblue" d="M284.08,-30.6C307.99,-37.53 335.98,-45.65 358.58,-52.2"/>
<polygon fill="midnightblue" stroke="midnightblue" points="357.65,-55.57 368.23,-55 359.6,-48.85 357.65,-55.57"/>
</g>
</g>
</svg>
