<?xml version="1.0" encoding="UTF-8" standalone="no"?>
<!DOCTYPE svg PUBLIC "-//W3C//DTD SVG 1.1//EN"
 "http://www.w3.org/Graphics/SVG/1.1/DTD/svg11.dtd">
<!-- Generated by graphviz version 2.43.0 (0)
 -->
<!-- Title: config_mod::config_grid Pages: 1 -->
<svg width="654pt" height="66pt"
 viewBox="0.00 0.00 654.00 66.00" xmlns="http://www.w3.org/2000/svg" xmlns:xlink="http://www.w3.org/1999/xlink">
<g id="graph0" class="graph" transform="scale(1 1) rotate(0) translate(4 62)">
<title>config_mod::config_grid</title>
<polygon fill="white" stroke="transparent" points="-4,4 -4,-62 650,-62 650,4 -4,4"/>
<!-- Node1 -->
<g id="node1" class="node">
<title>Node1</title>
<g id="a_node1"><a xlink:title="Process grid configuration.">
<polygon fill="#bfbfbf" stroke="black" points="0,-19.5 0,-38.5 132,-38.5 132,-19.5 0,-19.5"/>
<text text-anchor="middle" x="66" y="-26.5" font-family="Helvetica,sans-Serif" font-size="10.00">config_mod::config_grid</text>
</a>
</g>
</g>
<!-- Node2 -->
<g id="node2" class="node">
<title>Node2</title>
<g id="a_node2"><a xlink:href="group__core__modules.html#ga51caf927c8403a431dd55956762ad350" target="_top" xlink:title="CC_Error.">
<polygon fill="white" stroke="black" points="173,-38.5 173,-57.5 285,-57.5 285,-38.5 173,-38.5"/>
<text text-anchor="middle" x="229" y="-45.5" font-family="Helvetica,sans-Serif" font-size="10.00">error_mod::cc_error</text>
</a>
</g>
</g>
<!-- Node1&#45;&gt;Node2 -->
<g id="edge1" class="edge">
<title>Node1&#45;&gt;Node2</title>
<path fill="none" stroke="midnightblue" d="M132.02,-36.67C142.17,-37.87 152.65,-39.11 162.8,-40.31"/>
<polygon fill="midnightblue" stroke="midnightblue" points="162.47,-43.79 172.81,-41.49 163.29,-36.84 162.47,-43.79"/>
</g>
<!-- Node5 -->
<g id="node5" class="node">
<title>Node5</title>
<g id="a_node5"><a xlink:href="group__core__modules.html#ga0ee5218b21cf850e303a4380e9ce220b" target="_top" xlink:title="Split a string into substrings.">
<polygon fill="white" stroke="black" points="168,-0.5 168,-19.5 290,-19.5 290,-0.5 168,-0.5"/>
<text text-anchor="middle" x="229" y="-7.5" font-family="Helvetica,sans-Serif" font-size="10.00">charpak_mod::strsplit</text>
</a>
</g>
</g>
<!-- Node1&#45;&gt;Node5 -->
<g id="edge4" class="edge">
<title>Node1&#45;&gt;Node5</title>
<path fill="none" stroke="midnightblue" d="M132.02,-21.33C140.55,-20.32 149.32,-19.28 157.93,-18.27"/>
<polygon fill="midnightblue" stroke="midnightblue" points="158.42,-21.74 167.94,-17.09 157.6,-14.78 158.42,-21.74"/>
</g>
<!-- Node3 -->
<g id="node3" class="node">
<title>Node3</title>
<g id="a_node3"><a xlink:href="group__core__modules.html#ga3890886a8d25cb4253fe2706c44e6e78" target="_top" xlink:title="Print a string in multiple lines.">
<polygon fill="white" stroke="black" points="326,-38.5 326,-57.5 485,-57.5 485,-38.5 326,-38.5"/>
<text text-anchor="middle" x="405.5" y="-45.5" font-family="Helvetica,sans-Serif" font-size="10.00">charpak_mod::wordwrapprint</text>
</a>
</g>
</g>
<!-- Node2&#45;&gt;Node3 -->
<g id="edge2" class="edge">
<title>Node2&#45;&gt;Node3</title>
<path fill="none" stroke="midnightblue" d="M285.21,-48C294.87,-48 305.14,-48 315.44,-48"/>
<polygon fill="midnightblue" stroke="midnightblue" points="315.74,-51.5 325.74,-48 315.74,-44.5 315.74,-51.5"/>
</g>
<!-- Node4 -->
<g id="node4" class="node">
<title>Node4</title>
<g id="a_node4"><a xlink:href="group__core__modules.html#ga36b722fb300c543f0eb910116bb28973" target="_top" xlink:title="Count the number of times a character appears in a string.">
<polygon fill="white" stroke="black" points="522,-38.5 522,-57.5 645,-57.5 645,-38.5 522,-38.5"/>
<text text-anchor="middle" x="583.5" y="-45.5" font-family="Helvetica,sans-Serif" font-size="10.00">charpak_mod::cntmat</text>
</a>
</g>
</g>
<!-- Node3&#45;&gt;Node4 -->
<g id="edge3" class="edge">
<title>Node3&#45;&gt;Node4</title>
<path fill="none" stroke="midnightblue" d="M485.23,-48C494.05,-48 502.99,-48 511.7,-48"/>
<polygon fill="midnightblue" stroke="midnightblue" points="511.79,-51.5 521.79,-48 511.79,-44.5 511.79,-51.5"/>
</g>
<!-- Node6 -->
<g id="node6" class="node">
<title>Node6</title>
<g id="a_node6"><a xlink:href="group__core__modules.html#ga1849bf292b78e7b221ebb9da47db21bb" target="_top" xlink:title="Extract text from a string.">
<polygon fill="white" stroke="black" points="346.5,-0.5 346.5,-19.5 464.5,-19.5 464.5,-0.5 346.5,-0.5"/>
<text text-anchor="middle" x="405.5" y="-7.5" font-family="Helvetica,sans-Serif" font-size="10.00">charpak_mod::txtext</text>
</a>
</g>
</g>
<!-- Node5&#45;&gt;Node6 -->
<g id="edge5" class="edge">
<title>Node5&#45;&gt;Node6</title>
<path fill="none" stroke="midnightblue" d="M290.05,-10C304.87,-10 320.85,-10 336.04,-10"/>
<polygon fill="midnightblue" stroke="midnightblue" points="336.4,-13.5 346.4,-10 336.4,-6.5 336.4,-13.5"/>
</g>
<!-- Node6&#45;&gt;Node4 -->
<g id="edge6" class="edge">
<title>Node6&#45;&gt;Node4</title>
<path fill="none" stroke="midnightblue" d="M450.91,-19.59C474.45,-24.67 503.56,-30.96 528.4,-36.32"/>
<polygon fill="midnightblue" stroke="midnightblue" points="527.89,-39.79 538.41,-38.48 529.37,-32.95 527.89,-39.79"/>
</g>
<!-- Node7 -->
<g id="node7" class="node">
<title>Node7</title>
<g id="a_node7"><a xlink:href="group__core__modules.html#gab3380e435c78f855e451be2b17e7cd9e" target="_top" xlink:title="Copy characters from one string to another.">
<polygon fill="white" stroke="black" points="521,-0.5 521,-19.5 646,-19.5 646,-0.5 521,-0.5"/>
<text text-anchor="middle" x="583.5" y="-7.5" font-family="Helvetica,sans-Serif" font-size="10.00">charpak_mod::copytxt</text>
</a>
</g>
</g>
<!-- Node6&#45;&gt;Node7 -->
<g id="edge7" class="edge">
<title>Node6&#45;&gt;Node7</title>
<path fill="none" stroke="midnightblue" d="M464.62,-10C479.26,-10 495.16,-10 510.4,-10"/>
<polygon fill="midnightblue" stroke="midnightblue" points="510.82,-13.5 520.82,-10 510.82,-6.5 510.82,-13.5"/>
</g>
</g>
</svg>
