<?xml version="1.0" encoding="UTF-8" standalone="no"?>
<!DOCTYPE svg PUBLIC "-//W3C//DTD SVG 1.1//EN"
 "http://www.w3.org/Graphics/SVG/1.1/DTD/svg11.dtd">
<!-- Generated by graphviz version 2.43.0 (0)
 -->
<!-- Title: ccpr_scheme_gong97_mod::ccpr_scheme_gong97 Pages: 1 -->
<svg width="665pt" height="39pt"
 viewBox="0.00 0.00 665.00 39.00" xmlns="http://www.w3.org/2000/svg" xmlns:xlink="http://www.w3.org/1999/xlink">
<g id="graph0" class="graph" transform="scale(1 1) rotate(0) translate(4 35)">
<title>ccpr_scheme_gong97_mod::ccpr_scheme_gong97</title>
<polygon fill="white" stroke="transparent" points="-4,4 -4,-35 661,-35 661,4 -4,4"/>
<!-- Node1 -->
<g id="node1" class="node">
<title>Node1</title>
<g id="a_node1"><a xlink:title="Run the Ginoux windblown dust emission scheme.">
<polygon fill="#bfbfbf" stroke="black" points="0,-0.5 0,-30.5 155,-30.5 155,-0.5 0,-0.5"/>
<text text-anchor="start" x="8" y="-18.5" font-family="Helvetica,sans-Serif" font-size="10.00">ccpr_scheme_gong97</text>
<text text-anchor="middle" x="77.5" y="-7.5" font-family="Helvetica,sans-Serif" font-size="10.00">_mod::ccpr_scheme_gong97</text>
</a>
</g>
</g>
<!-- Node2 -->
<g id="node2" class="node">
<title>Node2</title>
<g id="a_node2"><a xlink:href="group__core__modules.html#ga51caf927c8403a431dd55956762ad350" target="_top" xlink:title="CC_Error.">
<polygon fill="white" stroke="black" points="191,-6 191,-25 303,-25 303,-6 191,-6"/>
<text text-anchor="middle" x="247" y="-13" font-family="Helvetica,sans-Serif" font-size="10.00">error_mod::cc_error</text>
</a>
</g>
</g>
<!-- Node1&#45;&gt;Node2 -->
<g id="edge1" class="edge">
<title>Node1&#45;&gt;Node2</title>
<path fill="none" stroke="midnightblue" d="M155.39,-15.5C163.73,-15.5 172.17,-15.5 180.36,-15.5"/>
<polygon fill="midnightblue" stroke="midnightblue" points="180.58,-19 190.58,-15.5 180.58,-12 180.58,-19"/>
</g>
<!-- Node3 -->
<g id="node3" class="node">
<title>Node3</title>
<g id="a_node3"><a xlink:href="group__core__modules.html#ga3890886a8d25cb4253fe2706c44e6e78" target="_top" xlink:title="Print a string in multiple lines.">
<polygon fill="white" stroke="black" points="339,-6 339,-25 498,-25 498,-6 339,-6"/>
<text text-anchor="middle" x="418.5" y="-13" font-family="Helvetica,sans-Serif" font-size="10.00">charpak_mod::wordwrapprint</text>
</a>
</g>
</g>
<!-- Node2&#45;&gt;Node3 -->
<g id="edge2" class="edge">
<title>Node2&#45;&gt;Node3</title>
<path fill="none" stroke="midnightblue" d="M303.03,-15.5C311.23,-15.5 319.85,-15.5 328.54,-15.5"/>
<polygon fill="midnightblue" stroke="midnightblue" points="328.73,-19 338.73,-15.5 328.73,-12 328.73,-19"/>
</g>
<!-- Node4 -->
<g id="node4" class="node">
<title>Node4</title>
<g id="a_node4"><a xlink:href="group__core__modules.html#ga36b722fb300c543f0eb910116bb28973" target="_top" xlink:title="Count the number of times a character appears in a string.">
<polygon fill="white" stroke="black" points="534,-6 534,-25 657,-25 657,-6 534,-6"/>
<text text-anchor="middle" x="595.5" y="-13" font-family="Helvetica,sans-Serif" font-size="10.00">charpak_mod::cntmat</text>
</a>
</g>
</g>
<!-- Node3&#45;&gt;Node4 -->
<g id="edge3" class="edge">
<title>Node3&#45;&gt;Node4</title>
<path fill="none" stroke="midnightblue" d="M498.04,-15.5C506.57,-15.5 515.21,-15.5 523.64,-15.5"/>
<polygon fill="midnightblue" stroke="midnightblue" points="523.79,-19 533.79,-15.5 523.79,-12 523.79,-19"/>
</g>
</g>
</svg>
