<?xml version="1.0" encoding="UTF-8" standalone="no"?>
<!DOCTYPE svg PUBLIC "-//W3C//DTD SVG 1.1//EN"
 "http://www.w3.org/Graphics/SVG/1.1/DTD/svg11.dtd">
<!-- Generated by graphviz version 2.43.0 (0)
 -->
<!-- Title: config_mod::read_input_file Pages: 1 -->
<svg width="481pt" height="236pt"
 viewBox="0.00 0.00 481.00 235.88" xmlns="http://www.w3.org/2000/svg" xmlns:xlink="http://www.w3.org/1999/xlink">
<g id="graph0" class="graph" transform="scale(1 1) rotate(0) translate(4 231.88)">
<title>config_mod::read_input_file</title>
<polygon fill="white" stroke="transparent" points="-4,4 -4,-231.88 477,-231.88 477,4 -4,4"/>
<!-- Node1 -->
<g id="node1" class="node">
<title>Node1</title>
<g id="a_node1"><a xlink:title="Read the configuration file.">
<polygon fill="#bfbfbf" stroke="black" points="0,-117.5 0,-136.5 151,-136.5 151,-117.5 0,-117.5"/>
<text text-anchor="middle" x="75.5" y="-124.5" font-family="Helvetica,sans-Serif" font-size="10.00">config_mod::read_input_file</text>
</a>
</g>
</g>
<!-- Node2 -->
<g id="node2" class="node">
<title>Node2</title>
<g id="a_node2"><a xlink:href="group__Core__Modules.html#ga51caf927c8403a431dd55956762ad350" target="_top" xlink:title="CC_Error.">
<polygon fill="white" stroke="black" points="361,-164.5 361,-183.5 473,-183.5 473,-164.5 361,-164.5"/>
<text text-anchor="middle" x="417" y="-171.5" font-family="Helvetica,sans-Serif" font-size="10.00">error_mod::cc_error</text>
</a>
</g>
</g>
<!-- Node1&#45;&gt;Node2 -->
<g id="edge1" class="edge">
<title>Node1&#45;&gt;Node2</title>
<path fill="none" stroke="midnightblue" d="M84.39,-136.62C100.96,-155.98 141.62,-199.14 187,-215 244.9,-235.24 265.04,-227.88 325,-215 348.59,-209.93 373.43,-198.25 391.19,-188.65"/>
<polygon fill="midnightblue" stroke="midnightblue" points="393.25,-191.51 400.28,-183.58 389.84,-185.4 393.25,-191.51"/>
</g>
<!-- Node3 -->
<g id="node3" class="node">
<title>Node3</title>
<g id="a_node3"><a xlink:href="group__Core__Modules.html#gaabe8c8bd2f1a373967f7bc804aedb91e" target="_top" xlink:title="Process grid configuration.">
<polygon fill="white" stroke="black" points="190,-186.5 190,-205.5 322,-205.5 322,-186.5 190,-186.5"/>
<text text-anchor="middle" x="256" y="-193.5" font-family="Helvetica,sans-Serif" font-size="10.00">config_mod::config_grid</text>
</a>
</g>
</g>
<!-- Node1&#45;&gt;Node3 -->
<g id="edge2" class="edge">
<title>Node1&#45;&gt;Node3</title>
<path fill="none" stroke="midnightblue" d="M95.3,-136.57C117,-147.37 153.95,-164.99 187,-177 193.42,-179.34 200.28,-181.56 207.07,-183.6"/>
<polygon fill="midnightblue" stroke="midnightblue" points="206.33,-187.03 216.91,-186.46 208.28,-180.31 206.33,-187.03"/>
</g>
<!-- Node4 -->
<g id="node4" class="node">
<title>Node4</title>
<g id="a_node4"><a xlink:href="group__Core__Modules.html#ga971679020f0cb9ce171844bf2e435161" target="_top" xlink:title="Process dust configuration.">
<polygon fill="white" stroke="black" points="202,-137 202,-167 310,-167 310,-137 202,-137"/>
<text text-anchor="start" x="210" y="-155" font-family="Helvetica,sans-Serif" font-size="10.00">config_mod::config</text>
<text text-anchor="middle" x="256" y="-144" font-family="Helvetica,sans-Serif" font-size="10.00">_process_dust</text>
</a>
</g>
</g>
<!-- Node1&#45;&gt;Node4 -->
<g id="edge4" class="edge">
<title>Node1&#45;&gt;Node4</title>
<path fill="none" stroke="midnightblue" d="M144.49,-136.52C160.09,-138.71 176.61,-141.02 191.99,-143.17"/>
<polygon fill="midnightblue" stroke="midnightblue" points="191.52,-146.64 201.91,-144.56 192.49,-139.71 191.52,-146.64"/>
</g>
<!-- Node5 -->
<g id="node5" class="node">
<title>Node5</title>
<g id="a_node5"><a xlink:href="group__Core__Modules.html#ga2828ce1f26410b947722ec54e1c6cbd0" target="_top" xlink:title="Process simulation configuration.">
<polygon fill="white" stroke="black" points="202,-88 202,-118 310,-118 310,-88 202,-88"/>
<text text-anchor="start" x="210" y="-106" font-family="Helvetica,sans-Serif" font-size="10.00">config_mod::config</text>
<text text-anchor="middle" x="256" y="-95" font-family="Helvetica,sans-Serif" font-size="10.00">_simulation</text>
</a>
</g>
</g>
<!-- Node1&#45;&gt;Node5 -->
<g id="edge6" class="edge">
<title>Node1&#45;&gt;Node5</title>
<path fill="none" stroke="midnightblue" d="M147.3,-117.48C161.95,-115.51 177.29,-113.45 191.65,-111.52"/>
<polygon fill="midnightblue" stroke="midnightblue" points="192.47,-114.94 201.91,-110.14 191.53,-108 192.47,-114.94"/>
</g>
<!-- Node6 -->
<g id="node6" class="node">
<title>Node6</title>
<g id="a_node6"><a xlink:href="group__Core__Modules.html#ga429d59da48e697c73f98fc09fccf48f1" target="_top" xlink:title="QFYAML_CleanUp.">
<polygon fill="white" stroke="black" points="197.5,-39 197.5,-69 314.5,-69 314.5,-39 197.5,-39"/>
<text text-anchor="start" x="205.5" y="-57" font-family="Helvetica,sans-Serif" font-size="10.00">qfyaml_mod::qfyaml</text>
<text text-anchor="middle" x="256" y="-46" font-family="Helvetica,sans-Serif" font-size="10.00">_cleanup</text>
</a>
</g>
</g>
<!-- Node1&#45;&gt;Node6 -->
<g id="edge8" class="edge">
<title>Node1&#45;&gt;Node6</title>
<path fill="none" stroke="midnightblue" d="M97.53,-117.43C119.65,-107.48 155.55,-91.6 187,-79 192.18,-76.92 197.61,-74.82 203.04,-72.75"/>
<polygon fill="midnightblue" stroke="midnightblue" points="204.65,-75.89 212.78,-69.09 202.19,-69.33 204.65,-75.89"/>
</g>
<!-- Node7 -->
<g id="node7" class="node">
<title>Node7</title>
<g id="a_node7"><a xlink:href="group__Core__Modules.html#gabbe67de4de7c8a10959cdde3598ab610" target="_top" xlink:title="Initializes a QFYAML_t object from a YAML file.">
<polygon fill="white" stroke="black" points="187,-0.5 187,-19.5 325,-19.5 325,-0.5 187,-0.5"/>
<text text-anchor="middle" x="256" y="-7.5" font-family="Helvetica,sans-Serif" font-size="10.00">qfyaml_mod::qfyaml_init</text>
</a>
</g>
</g>
<!-- Node1&#45;&gt;Node7 -->
<g id="edge9" class="edge">
<title>Node1&#45;&gt;Node7</title>
<path fill="none" stroke="midnightblue" d="M84.64,-117.49C101.68,-98.17 143.17,-54.13 187,-30 191.85,-27.33 197.1,-24.98 202.45,-22.92"/>
<polygon fill="midnightblue" stroke="midnightblue" points="203.86,-26.13 212.14,-19.52 201.55,-19.53 203.86,-26.13"/>
</g>
<!-- Node3&#45;&gt;Node2 -->
<g id="edge3" class="edge">
<title>Node3&#45;&gt;Node2</title>
<path fill="none" stroke="midnightblue" d="M322.13,-186.99C331.58,-185.68 341.3,-184.34 350.75,-183.03"/>
<polygon fill="midnightblue" stroke="midnightblue" points="351.45,-186.47 360.87,-181.63 350.49,-179.53 351.45,-186.47"/>
</g>
<!-- Node4&#45;&gt;Node2 -->
<g id="edge5" class="edge">
<title>Node4&#45;&gt;Node2</title>
<path fill="none" stroke="midnightblue" d="M310.39,-159.39C323.33,-161.18 337.31,-163.11 350.73,-164.97"/>
<polygon fill="midnightblue" stroke="midnightblue" points="350.47,-168.47 360.85,-166.37 351.43,-161.53 350.47,-168.47"/>
</g>
<!-- Node5&#45;&gt;Node2 -->
<g id="edge7" class="edge">
<title>Node5&#45;&gt;Node2</title>
<path fill="none" stroke="midnightblue" d="M300.46,-118.13C308.68,-121.23 317.16,-124.59 325,-128 347.05,-137.59 371.33,-149.95 389.25,-159.45"/>
<polygon fill="midnightblue" stroke="midnightblue" points="388.03,-162.77 398.5,-164.39 391.33,-156.59 388.03,-162.77"/>
</g>
</g>
</svg>
