<?xml version="1.0" encoding="UTF-8" standalone="no"?>
<!DOCTYPE svg PUBLIC "-//W3C//DTD SVG 1.1//EN"
 "http://www.w3.org/Graphics/SVG/1.1/DTD/svg11.dtd">
<!-- Generated by graphviz version 2.43.0 (0)
 -->
<!-- Title: charpak_mod::strsplit Pages: 1 -->
<svg width="445pt" height="66pt"
 viewBox="0.00 0.00 445.00 66.00" xmlns="http://www.w3.org/2000/svg" xmlns:xlink="http://www.w3.org/1999/xlink">
<g id="graph0" class="graph" transform="scale(1 1) rotate(0) translate(4 62)">
<title>charpak_mod::strsplit</title>
<polygon fill="white" stroke="transparent" points="-4,4 -4,-62 441,-62 441,4 -4,4"/>
<!-- Node1 -->
<g id="node1" class="node">
<title>Node1</title>
<g id="a_node1"><a xlink:title="Split a string into substrings.">
<polygon fill="#bfbfbf" stroke="black" points="0,-19.5 0,-38.5 122,-38.5 122,-19.5 0,-19.5"/>
<text text-anchor="middle" x="61" y="-26.5" font-family="Helvetica,sans-Serif" font-size="10.00">charpak_mod::strsplit</text>
</a>
</g>
</g>
<!-- Node2 -->
<g id="node2" class="node">
<title>Node2</title>
<g id="a_node2"><a xlink:href="group__core__modules.html#ga1849bf292b78e7b221ebb9da47db21bb" target="_top" xlink:title="Extract text from a string.">
<polygon fill="white" stroke="black" points="158,-19.5 158,-38.5 276,-38.5 276,-19.5 158,-19.5"/>
<text text-anchor="middle" x="217" y="-26.5" font-family="Helvetica,sans-Serif" font-size="10.00">charpak_mod::txtext</text>
</a>
</g>
</g>
<!-- Node1&#45;&gt;Node2 -->
<g id="edge1" class="edge">
<title>Node1&#45;&gt;Node2</title>
<path fill="none" stroke="midnightblue" d="M122.42,-29C130.69,-29 139.23,-29 147.62,-29"/>
<polygon fill="midnightblue" stroke="midnightblue" points="147.77,-32.5 157.77,-29 147.77,-25.5 147.77,-32.5"/>
</g>
<!-- Node3 -->
<g id="node3" class="node">
<title>Node3</title>
<g id="a_node3"><a xlink:href="group__core__modules.html#ga36b722fb300c543f0eb910116bb28973" target="_top" xlink:title="Count the number of times a character appears in a string.">
<polygon fill="white" stroke="black" points="313,-38.5 313,-57.5 436,-57.5 436,-38.5 313,-38.5"/>
<text text-anchor="middle" x="374.5" y="-45.5" font-family="Helvetica,sans-Serif" font-size="10.00">charpak_mod::cntmat</text>
</a>
</g>
</g>
<!-- Node2&#45;&gt;Node3 -->
<g id="edge2" class="edge">
<title>Node2&#45;&gt;Node3</title>
<path fill="none" stroke="midnightblue" d="M276.34,-36.13C284.89,-37.17 293.77,-38.26 302.54,-39.33"/>
<polygon fill="midnightblue" stroke="midnightblue" points="302.4,-42.84 312.75,-40.58 303.25,-35.89 302.4,-42.84"/>
</g>
<!-- Node4 -->
<g id="node4" class="node">
<title>Node4</title>
<g id="a_node4"><a xlink:href="group__core__modules.html#gab3380e435c78f855e451be2b17e7cd9e" target="_top" xlink:title="Copy characters from one string to another.">
<polygon fill="white" stroke="black" points="312,-0.5 312,-19.5 437,-19.5 437,-0.5 312,-0.5"/>
<text text-anchor="middle" x="374.5" y="-7.5" font-family="Helvetica,sans-Serif" font-size="10.00">charpak_mod::copytxt</text>
</a>
</g>
</g>
<!-- Node2&#45;&gt;Node4 -->
<g id="edge3" class="edge">
<title>Node2&#45;&gt;Node4</title>
<path fill="none" stroke="midnightblue" d="M276.34,-21.87C284.71,-20.85 293.39,-19.79 301.97,-18.74"/>
<polygon fill="midnightblue" stroke="midnightblue" points="302.47,-22.21 311.97,-17.52 301.62,-15.26 302.47,-22.21"/>
</g>
</g>
</svg>
