<?xml version="1.0" encoding="UTF-8" standalone="no"?>
<!DOCTYPE svg PUBLIC "-//W3C//DTD SVG 1.1//EN"
 "http://www.w3.org/Graphics/SVG/1.1/DTD/svg11.dtd">
<!-- Generated by graphviz version 2.43.0 (0)
 -->
<!-- Title: ccpr_seasalt_mod::ccpr_seasalt_init Pages: 1 -->
<svg width="456pt" height="39pt"
 viewBox="0.00 0.00 456.00 39.00" xmlns="http://www.w3.org/2000/svg" xmlns:xlink="http://www.w3.org/1999/xlink">
<g id="graph0" class="graph" transform="scale(1 1) rotate(0) translate(4 35)">
<title>ccpr_seasalt_mod::ccpr_seasalt_init</title>
<polygon fill="white" stroke="transparent" points="-4,4 -4,-35 452,-35 452,4 -4,4"/>
<!-- Node1 -->
<g id="node1" class="node">
<title>Node1</title>
<g id="a_node1"><a xlink:title="Initialize the CATCHem SeaSalt Process.">
<polygon fill="#bfbfbf" stroke="black" points="0,-0.5 0,-30.5 131,-30.5 131,-0.5 0,-0.5"/>
<text text-anchor="start" x="8" y="-18.5" font-family="Helvetica,sans-Serif" font-size="10.00">ccpr_seasalt_mod::ccpr</text>
<text text-anchor="middle" x="65.5" y="-7.5" font-family="Helvetica,sans-Serif" font-size="10.00">_seasalt_init</text>
</a>
</g>
</g>
<!-- Node2 -->
<g id="node2" class="node">
<title>Node2</title>
<g id="a_node2"><a xlink:href="group__Core__Modules.html#ga9d9a1354b84c23bc24cd4db6a547d348" target="_top" xlink:title="CC_CheckVar.">
<polygon fill="white" stroke="black" points="167,-6 167,-25 300,-25 300,-6 167,-6"/>
<text text-anchor="middle" x="233.5" y="-13" font-family="Helvetica,sans-Serif" font-size="10.00">error_mod::cc_checkvar</text>
</a>
</g>
</g>
<!-- Node1&#45;&gt;Node2 -->
<g id="edge1" class="edge">
<title>Node1&#45;&gt;Node2</title>
<path fill="none" stroke="midnightblue" d="M131.16,-15.5C139.6,-15.5 148.3,-15.5 156.9,-15.5"/>
<polygon fill="midnightblue" stroke="midnightblue" points="156.93,-19 166.93,-15.5 156.93,-12 156.93,-19"/>
</g>
<!-- Node3 -->
<g id="node3" class="node">
<title>Node3</title>
<g id="a_node3"><a xlink:href="group__Core__Modules.html#ga51caf927c8403a431dd55956762ad350" target="_top" xlink:title="CC_Error.">
<polygon fill="white" stroke="black" points="336,-6 336,-25 448,-25 448,-6 336,-6"/>
<text text-anchor="middle" x="392" y="-13" font-family="Helvetica,sans-Serif" font-size="10.00">error_mod::cc_error</text>
</a>
</g>
</g>
<!-- Node2&#45;&gt;Node3 -->
<g id="edge2" class="edge">
<title>Node2&#45;&gt;Node3</title>
<path fill="none" stroke="midnightblue" d="M300.42,-15.5C308.73,-15.5 317.24,-15.5 325.54,-15.5"/>
<polygon fill="midnightblue" stroke="midnightblue" points="325.55,-19 335.55,-15.5 325.55,-12 325.55,-19"/>
</g>
</g>
</svg>
