<?xml version="1.0" encoding="UTF-8" standalone="no"?>
<!DOCTYPE svg PUBLIC "-//W3C//DTD SVG 1.1//EN"
 "http://www.w3.org/Graphics/SVG/1.1/DTD/svg11.dtd">
<!-- Generated by graphviz version 2.43.0 (0)
 -->
<!-- Title: ccpr_seasalt_mod::ccpr_seasalt_run Pages: 1 -->
<svg width="478pt" height="159pt"
 viewBox="0.00 0.00 478.00 158.92" xmlns="http://www.w3.org/2000/svg" xmlns:xlink="http://www.w3.org/1999/xlink">
<g id="graph0" class="graph" transform="scale(1 1) rotate(0) translate(4 154.92)">
<title>ccpr_seasalt_mod::ccpr_seasalt_run</title>
<polygon fill="white" stroke="transparent" points="-4,4 -4,-154.92 474,-154.92 474,4 -4,4"/>
<!-- Node1 -->
<g id="node1" class="node">
<title>Node1</title>
<g id="a_node1"><a xlink:title="Run the seasalt scheme.">
<polygon fill="#bfbfbf" stroke="black" points="0,-73.5 0,-103.5 131,-103.5 131,-73.5 0,-73.5"/>
<text text-anchor="start" x="8" y="-91.5" font-family="Helvetica,sans-Serif" font-size="10.00">ccpr_seasalt_mod::ccpr</text>
<text text-anchor="middle" x="65.5" y="-80.5" font-family="Helvetica,sans-Serif" font-size="10.00">_seasalt_run</text>
</a>
</g>
</g>
<!-- Node2 -->
<g id="node2" class="node">
<title>Node2</title>
<g id="a_node2"><a xlink:href="group__Core__Modules.html#ga51caf927c8403a431dd55956762ad350" target="_top" xlink:title="CC_Error.">
<polygon fill="white" stroke="black" points="358,-79 358,-98 470,-98 470,-79 358,-79"/>
<text text-anchor="middle" x="414" y="-86" font-family="Helvetica,sans-Serif" font-size="10.00">error_mod::cc_error</text>
</a>
</g>
</g>
<!-- Node1&#45;&gt;Node2 -->
<g id="edge1" class="edge">
<title>Node1&#45;&gt;Node2</title>
<path fill="none" stroke="midnightblue" d="M89.29,-103.68C108.93,-115.8 138.54,-131.81 167,-138.5 234.06,-154.26 255.27,-155.62 322,-138.5 347.87,-131.86 374.28,-116.16 391.94,-104.11"/>
<polygon fill="midnightblue" stroke="midnightblue" points="394.16,-106.82 400.32,-98.2 390.13,-101.1 394.16,-106.82"/>
</g>
<!-- Node3 -->
<g id="node3" class="node">
<title>Node3</title>
<g id="a_node3"><a xlink:href="group__CATChem__SeaSalt__Processes.html#gaefa204b1f5f6e2740e0149484a2a2854" target="_top" xlink:title="Scheme GEOS2012 Sea Salt Emission scheme.">
<polygon fill="white" stroke="black" points="167.5,-98.5 167.5,-128.5 321.5,-128.5 321.5,-98.5 167.5,-98.5"/>
<text text-anchor="start" x="175.5" y="-116.5" font-family="Helvetica,sans-Serif" font-size="10.00">ccpr_scheme_geos12</text>
<text text-anchor="middle" x="244.5" y="-105.5" font-family="Helvetica,sans-Serif" font-size="10.00">_mod::ccpr_scheme_geos12</text>
</a>
</g>
</g>
<!-- Node1&#45;&gt;Node3 -->
<g id="edge2" class="edge">
<title>Node1&#45;&gt;Node3</title>
<path fill="none" stroke="midnightblue" d="M131.15,-97.63C139.69,-98.84 148.55,-100.09 157.38,-101.34"/>
<polygon fill="midnightblue" stroke="midnightblue" points="156.92,-104.81 167.31,-102.74 157.9,-97.87 156.92,-104.81"/>
</g>
<!-- Node4 -->
<g id="node4" class="node">
<title>Node4</title>
<g id="a_node4"><a xlink:href="group__CATChem__SeaSalt__Processes.html#ga88b0fdefeef9a317dbfa3b9ceeb5d2e9" target="_top" xlink:title="Run the Ginoux windblown dust emission scheme.">
<polygon fill="white" stroke="black" points="167,-49.5 167,-79.5 322,-79.5 322,-49.5 167,-49.5"/>
<text text-anchor="start" x="175" y="-67.5" font-family="Helvetica,sans-Serif" font-size="10.00">ccpr_scheme_gong03</text>
<text text-anchor="middle" x="244.5" y="-56.5" font-family="Helvetica,sans-Serif" font-size="10.00">_mod::ccpr_scheme_gong03</text>
</a>
</g>
</g>
<!-- Node1&#45;&gt;Node4 -->
<g id="edge4" class="edge">
<title>Node1&#45;&gt;Node4</title>
<path fill="none" stroke="midnightblue" d="M131.15,-79.73C139.46,-78.61 148.06,-77.44 156.65,-76.28"/>
<polygon fill="midnightblue" stroke="midnightblue" points="157.26,-79.73 166.7,-74.91 156.32,-72.79 157.26,-79.73"/>
</g>
<!-- Node5 -->
<g id="node5" class="node">
<title>Node5</title>
<g id="a_node5"><a xlink:href="group__CATChem__SeaSalt__Processes.html#ga76f44c0afb22ac85478b10cadad934d7" target="_top" xlink:title="Run the Ginoux windblown dust emission scheme.">
<polygon fill="white" stroke="black" points="167,-0.5 167,-30.5 322,-30.5 322,-0.5 167,-0.5"/>
<text text-anchor="start" x="175" y="-18.5" font-family="Helvetica,sans-Serif" font-size="10.00">ccpr_scheme_gong97</text>
<text text-anchor="middle" x="244.5" y="-7.5" font-family="Helvetica,sans-Serif" font-size="10.00">_mod::ccpr_scheme_gong97</text>
</a>
</g>
</g>
<!-- Node1&#45;&gt;Node5 -->
<g id="edge6" class="edge">
<title>Node1&#45;&gt;Node5</title>
<path fill="none" stroke="midnightblue" d="M95.52,-73.41C115.35,-63.4 142.41,-50.34 167,-40.5 172.7,-38.22 178.7,-35.98 184.73,-33.84"/>
<polygon fill="midnightblue" stroke="midnightblue" points="185.88,-37.15 194.19,-30.57 183.59,-30.53 185.88,-37.15"/>
</g>
<!-- Node3&#45;&gt;Node2 -->
<g id="edge3" class="edge">
<title>Node3&#45;&gt;Node2</title>
<path fill="none" stroke="midnightblue" d="M321.9,-102.1C330.49,-100.82 339.18,-99.52 347.61,-98.26"/>
<polygon fill="midnightblue" stroke="midnightblue" points="348.36,-101.69 357.74,-96.75 347.33,-94.76 348.36,-101.69"/>
</g>
<!-- Node4&#45;&gt;Node2 -->
<g id="edge5" class="edge">
<title>Node4&#45;&gt;Node2</title>
<path fill="none" stroke="midnightblue" d="M322.39,-75.52C330.82,-76.73 339.36,-77.95 347.63,-79.13"/>
<polygon fill="midnightblue" stroke="midnightblue" points="347.19,-82.61 357.58,-80.56 348.18,-75.68 347.19,-82.61"/>
</g>
<!-- Node5&#45;&gt;Node2 -->
<g id="edge7" class="edge">
<title>Node5&#45;&gt;Node2</title>
<path fill="none" stroke="midnightblue" d="M295.74,-30.57C304.59,-33.6 313.64,-36.96 322,-40.5 345.11,-50.29 370.27,-63.79 388.26,-73.98"/>
<polygon fill="midnightblue" stroke="midnightblue" points="386.55,-77.04 396.97,-78.97 390.03,-70.96 386.55,-77.04"/>
</g>
</g>
</svg>
